<?xml version="1.0" encoding="iso-8859-1"?>
<!-- Generator: Adobe Illustrator 19.0.0, SVG Export Plug-In . SVG Version: 6.00 Build 0)  -->
<svg version="1.1" id="Capa_1" xmlns="http://www.w3.org/2000/svg" xmlns:xlink="http://www.w3.org/1999/xlink" x="0px" y="0px"
	 viewBox="0 0 512 512" style="enable-background:new 0 0 512 512;" xml:space="preserve">
<g>
	<path style="fill:#FFFFFF;" d="M213.333,38.4H25.762c-4.569,0-8.952,1.815-12.183,5.046s-5.046,7.613-5.046,12.183v127.838H230.4
		l0.162-76.8V55.629c0-4.569-1.815-8.952-5.046-12.183C222.285,40.215,217.903,38.4,213.333,38.4z"/>
	<path style="fill:#7FACFA;" d="M230.562,106.667V55.629c0-9.515-7.714-17.229-17.229-17.229h-93.867
		c-9.515,0-17.229,7.714-17.229,17.229v127.838h401.229v-59.571c0-9.515-7.714-17.229-17.229-17.229H230.562z"/>
	<g>
		<path style="fill:#A4C2F7;" d="M230.562,106.667V55.629c0-9.515-7.714-17.229-17.229-17.229H51.362
			c-9.515,0-17.229,7.714-17.229,17.229v127.838h443.733v-59.571c0-9.515-7.714-17.229-17.229-17.229H230.562z"/>
		<path style="fill:#A4C2F7;" d="M281.438,183.467h222.029v272.905c0,9.515-7.714,17.229-17.229,17.229H298.667
			c-9.515,0-17.229-7.714-17.229-17.229V183.467z"/>
	</g>
	<path style="fill:#FFFFFF;" d="M8.533,183.467h222.029v272.905c0,9.515-7.714,17.229-17.229,17.229H25.762
		c-9.515,0-17.229-7.714-17.229-17.229V183.467z"/>
	<path style="fill:#E3E7F2;" d="M34.133,183.467h443.733v272.905c0,9.515-7.714,17.229-17.229,17.229H51.362
		c-9.515,0-17.229-7.714-17.229-17.229V183.467z"/>
	<g>
		<path style="fill:#428DFF;" d="M486.233,482.133H25.762C11.54,482.116,0.015,470.589,0,456.367v-272.9
			c-0.001-2.263,0.898-4.434,2.499-6.035c1.6-1.6,3.771-2.499,6.035-2.499h494.933c2.264-0.001,4.435,0.897,6.035,2.498
			c1.601,1.601,2.499,3.772,2.498,6.035v272.9C511.984,470.591,500.457,482.118,486.233,482.133L486.233,482.133z M17.067,192
			v264.367c0.003,4.802,3.894,8.695,8.695,8.7h460.471c4.803-0.003,8.697-3.897,8.7-8.7V192H17.067z"/>
		<path style="fill:#428DFF;" d="M503.467,192H8.533c-2.263,0.001-4.434-0.898-6.035-2.499c-1.6-1.6-2.499-3.771-2.499-6.035V55.633
			c0.015-14.222,11.54-25.749,25.762-25.767h187.571c14.222,0.018,25.747,11.544,25.762,25.767v42.5h247.138
			c14.224,0.016,25.751,11.543,25.767,25.767v59.567c0.001,2.264-0.897,4.435-2.498,6.035
			C507.901,191.103,505.73,192.001,503.467,192L503.467,192z M17.067,174.933h477.867V123.9c-0.003-4.803-3.897-8.697-8.7-8.7
			H230.562c-2.263,0.001-4.434-0.898-6.035-2.499c-1.6-1.6-2.499-3.771-2.499-6.035V55.633c-0.003-4.802-3.894-8.695-8.695-8.7
			H25.762c-4.802,0.005-8.693,3.898-8.695,8.7V174.933z"/>
		<path style="fill:#428DFF;" d="M281.6,285.867H162.133c-4.713,0-8.533-3.82-8.533-8.533s3.821-8.533,8.533-8.533H281.6
			c4.713,0,8.533,3.82,8.533,8.533S286.313,285.867,281.6,285.867z"/>
		<path style="fill:#428DFF;" d="M349.867,337.067H162.133c-4.713,0-8.533-3.82-8.533-8.533s3.821-8.533,8.533-8.533h187.733
			c4.713,0,8.533,3.82,8.533,8.533S354.579,337.067,349.867,337.067z"/>
		<path style="fill:#428DFF;" d="M349.867,388.267H162.133c-4.713,0-8.533-3.821-8.533-8.533c0-4.713,3.821-8.533,8.533-8.533
			h187.733c4.713,0,8.533,3.821,8.533,8.533C358.4,384.446,354.579,388.267,349.867,388.267z"/>
	</g>
</g>
<g>
</g>
<g>
</g>
<g>
</g>
<g>
</g>
<g>
</g>
<g>
</g>
<g>
</g>
<g>
</g>
<g>
</g>
<g>
</g>
<g>
</g>
<g>
</g>
<g>
</g>
<g>
</g>
<g>
</g>
</svg>
